<svg width="468" height="146" viewBox="0 0 468 146" fill="none" xmlns="http://www.w3.org/2000/svg">
<path d="M229.777 0.644043V62.1971H229.417C222.518 54.2911 213.965 51.56 203.974 51.56C183.562 51.56 168.181 65.503 162.79 83.831C149.853 41.137 92.784 42.4311 75.175 73.7681V56.375H35.787V37.5441H78.912V8.00305H0.567993V140.54H35.787V84.8371H70.934C69.855 88.9341 69.281 93.32 69.281 97.918C69.281 150.46 143.025 163.61 162.861 114.952H132.674C122.108 129.974 99.755 121.348 99.755 104.459H161.208C163.867 126.38 180.902 145.356 204.405 145.356C214.539 145.356 223.812 140.397 229.489 131.985H229.848V140.54H274.565V120.644V90.6441V60.644V20.644L274.567 0.644043H229.777ZM100.688 85.123C105.074 66.221 130.661 66.725 134.111 85.123H100.688ZM210.946 120.272C186.077 120.272 186.508 75.133 210.946 75.133C234.377 75.134 235.742 120.272 210.946 120.272Z" fill="white"/>
<path d="M353.345 140.332H274.156V0.661011H353.848V25.995H306.787V54.432H353.345V78.004H306.283V115.503H353.345V140.332Z" fill="#F47624"/>
<path d="M411.393 115.585L389.496 140.333H357.537L395.789 97.3821L357.537 54.4291H390.84L413.154 79.0101L434.631 54.4291H466.928L428.844 97.2151L467.432 140.333H433.456L411.393 115.585Z" fill="#F47624"/>
</svg>
