<svg width="98" height="904" viewBox="0 0 98 904" fill="none" xmlns="http://www.w3.org/2000/svg">
<rect x="33" width="32" height="904" rx="16" fill="#E3E3E3"/>
<rect x="33" width="32" height="546" rx="16" fill="#4E148C"/>
<circle cx="49" cy="32" r="6" fill="white"/>
<circle cx="49" cy="222" r="6" fill="#4D148C"/>
<circle cx="49" cy="332" r="6" fill="white"/>
<circle cx="49" cy="682" r="6" fill="#8B8B8B"/>
<circle cx="49" cy="832" r="6" fill="#8B8B8B"/>
<rect y="489" width="98" height="98" rx="49" fill="#4E148C"/>
<g clip-path="url(#clip0_110_44)">
<path d="M49 560.867C42.9354 560.867 37.1192 558.458 32.8309 554.169C28.5425 549.881 26.1334 544.065 26.1334 538C26.1334 531.935 28.5425 526.119 32.8309 521.831C37.1192 517.543 42.9354 515.133 49 515.133C55.0646 515.133 60.8809 517.543 65.1692 521.831C69.4575 526.119 71.8667 531.935 71.8667 538C71.8667 544.065 69.4575 549.881 65.1692 554.169C60.8809 558.458 55.0646 560.867 49 560.867ZM49 564.133C55.931 564.133 62.5781 561.38 67.4791 556.479C72.38 551.578 75.1334 544.931 75.1334 538C75.1334 531.069 72.38 524.422 67.4791 519.521C62.5781 514.62 55.931 511.867 49 511.867C42.069 511.867 35.4219 514.62 30.521 519.521C25.62 524.422 22.8667 531.069 22.8667 538C22.8667 544.931 25.62 551.578 30.521 556.479C35.4219 561.38 42.069 564.133 49 564.133Z" fill="white"/>
<path d="M58.7018 528.102C58.6785 528.124 58.6567 528.148 58.6365 528.174L47.2913 542.629L40.4542 535.788C39.9898 535.356 39.3755 535.12 38.7408 535.131C38.106 535.142 37.5005 535.399 37.0516 535.848C36.6027 536.297 36.3456 536.903 36.3344 537.538C36.3232 538.172 36.5588 538.787 36.9915 539.251L45.6351 547.898C45.868 548.13 46.1453 548.313 46.4504 548.436C46.7556 548.559 47.0824 548.62 47.4114 548.613C47.7403 548.607 48.0647 548.535 48.3651 548.401C48.6655 548.267 48.9358 548.073 49.1599 547.833L62.2004 531.532C62.6444 531.066 62.8872 530.444 62.8762 529.8C62.8653 529.156 62.6014 528.543 62.1418 528.092C61.6821 527.642 61.0636 527.39 60.4198 527.392C59.7761 527.394 59.159 527.649 58.7018 528.102Z" fill="white"/>
</g>
<defs>
<clipPath id="clip0_110_44">
<rect width="52.2667" height="52.2667" fill="white" transform="translate(22.8667 511.867)"/>
</clipPath>
</defs>
</svg>
