<svg width="98" height="904" viewBox="0 0 98 904" fill="none" xmlns="http://www.w3.org/2000/svg">
<rect x="33" width="32" height="904" rx="16" fill="#E3E3E3"/>
<rect x="33" width="32" height="546" rx="16" fill="#4E148C"/>
<circle cx="49" cy="32" r="6" fill="white"/>
<circle cx="49" cy="222" r="6" fill="#4D148C"/>
<circle cx="49" cy="332" r="6" fill="white"/>
<circle cx="49" cy="682" r="6" fill="#8B8B8B"/>
<circle cx="49" cy="832" r="6" fill="#8B8B8B"/>
<rect y="529" width="98" height="98" rx="49" fill="#4E148C"/>
<g clip-path="url(#clip0_110_44)">
<path d="M49 600.867C42.9354 600.867 37.1192 598.458 32.8309 594.169C28.5425 589.881 26.1334 584.065 26.1334 578C26.1334 571.935 28.5425 566.119 32.8309 561.831C37.1192 557.543 42.9354 555.133 49 555.133C55.0646 555.133 60.8809 557.543 65.1692 561.831C69.4575 566.119 71.8667 571.935 71.8667 578C71.8667 584.065 69.4575 589.881 65.1692 594.169C60.8809 598.458 55.0646 600.867 49 600.867ZM49 604.133C55.931 604.133 62.5781 601.38 67.4791 596.479C72.38 591.578 75.1334 584.931 75.1334 578C75.1334 571.069 72.38 564.422 67.4791 559.521C62.5781 554.62 55.931 551.867 49 551.867C42.069 551.867 35.4219 554.62 30.521 559.521C25.62 564.422 22.8667 571.069 22.8667 578C22.8667 584.931 25.62 591.578 30.521 596.479C35.4219 601.38 42.069 604.133 49 604.133Z" fill="white"/>
<path d="M58.7018 568.102C58.6785 568.124 58.6567 568.148 58.6365 568.174L47.2913 582.629L40.4542 575.788C39.9898 575.356 39.3755 575.12 38.7408 575.131C38.106 575.142 37.5005 575.399 37.0516 575.848C36.6027 576.297 36.3456 576.903 36.3344 577.538C36.3232 578.172 36.5588 578.787 36.9915 579.251L45.6351 587.898C45.868 588.13 46.1453 588.313 46.4504 588.436C46.7556 588.559 47.0824 588.62 47.4114 588.613C47.7403 588.607 48.0647 588.535 48.3651 588.401C48.6655 588.267 48.9358 588.073 49.1599 587.833L62.2004 571.532C62.6444 571.066 62.8872 570.444 62.8762 569.8C62.8653 569.156 62.6014 568.543 62.1418 568.092C61.6821 567.642 61.0636 567.39 60.4198 567.392C59.7761 567.394 59.159 567.649 58.7018 568.102Z" fill="white"/>
</g>
<defs>
<clipPath id="clip0_110_44">
<rect width="52.2667" height="52.2667" fill="white" transform="translate(22.8667 551.867)"/>
</clipPath>
</defs>
</svg>
